Coordinates
version=1
nRows=17
nColumns=40
inDegrees=yes

Units are S.I. units (second, meters, Newtons, ...)
Angles are in degrees.

endheader
time	pelvis_tilt	pelvis_list	pelvis_rotation	pelvis_tx	pelvis_ty	pelvis_tz	hip_flexion_r	hip_adduction_r	hip_rotation_r	knee_angle_r	knee_angle_r_beta	ankle_angle_r	subtalar_angle_r	mtp_angle_r	hip_flexion_l	hip_adduction_l	hip_rotation_l	knee_angle_l	knee_angle_l_beta	ankle_angle_l	subtalar_angle_l	mtp_angle_l	lumbar_extension	lumbar_bending	lumbar_rotation	arm_flex_r	arm_add_r	arm_rot_r	elbow_flex_r	pro_sup_r	wrist_flex_r	wrist_dev_r	arm_flex_l	arm_add_l	arm_rot_l	elbow_flex_l	pro_sup_l	wrist_flex_l	wrist_dev_l
     15.36000000	     -5.96695954	     -1.87844972	     -3.29564856	      0.96828143	      0.92088026	      0.42021481	     30.08240022	     -4.87267055	    -13.87859568	     14.37441559	     14.37441559	      1.55119849	      2.86564257	      9.25169696	      0.55572245	     -1.69122230	    -13.42614837	      9.40063370	      9.40063370	     15.75170842	     -1.92768845	     -7.94714502	    -11.05021047	      2.67989717	      2.30204609	    -11.37383812	    -14.59461464	     -1.57984993	     25.41734332	     46.77160639	      0.00000000	      0.00000000	     28.59360677	    -22.31474909	     -0.35171799	     93.52448810	     47.26799197	      0.00000000	      0.00000000
     15.37157143	     -5.83564131	     -1.65902665	     -3.19264546	      0.96987497	      0.91892390	      0.42190337	     29.61395977	     -4.88507999	    -14.96126283	     13.75450970	     13.75450970	      1.74089959	      4.16635775	     10.17702729	     -0.48049169	     -1.48472312	    -13.43029181	      8.99849825	      8.99849825	     16.21714711	     -1.53033880	     -8.19656143	    -10.96483406	      2.41723820	      2.03335857	    -13.42201247	    -14.58223035	     -2.18650194	     27.07885668	     46.70064457	      0.00000000	      0.00000000	     28.04026160	    -22.77130090	     -0.95095536	     96.01902332	     47.40861315	      0.00000000	      0.00000000
     15.38314286	     -5.77547685	     -1.59897117	     -3.09916667	      0.97138841	      0.91705342	      0.42395090	     29.17643651	     -4.65637608	    -15.48042732	     13.39838240	     13.39838240	      1.39160154	      4.49446623	      9.89394033	     -1.26159348	     -1.52095586	    -13.35068370	      8.95349254	      8.95349254	     16.80915465	     -1.40617222	     -8.16811415	    -10.75226834	      2.31139896	      2.20541783	    -14.97175980	    -14.40592851	     -2.28978005	     27.05170176	     46.68526124	      0.00000000	      0.00000000	     28.02739573	    -22.65923427	     -1.25039061	     97.24279568	     47.47262650	      0.00000000	      0.00000000
     15.39471429	     -5.73205975	     -1.57174759	     -2.99257686	      0.97284784	      0.91524509	      0.42609052	     28.96617660	     -4.50667953	    -15.79027332	     13.77302120	     13.77302120	      0.93639082	      4.52784727	      8.70885963	     -1.88983554	     -1.64223230	    -13.25727689	      9.17557359	      9.17557359	     17.53082299	     -1.31364363	     -7.90780577	    -10.55552895	      2.26185132	      2.30750957	    -16.40060524	    -14.22108958	     -2.47404734	     27.25364655	     46.66694501	      0.00000000	      0.00000000	     27.75793856	    -22.55159802	     -1.61648031	     98.66222744	     47.54354059	      0.00000000	      0.00000000
     15.40628571	     -5.65988067	     -1.66221047	     -2.88180301	      0.97440688	      0.91365372	      0.42862552	     28.58788332	     -4.17363909	    -15.78350316	     14.07261301	     14.07261301	     -0.80769583	      3.73256867	      3.48662764	     -2.34473772	     -2.01030973	    -13.44859233	      9.89212815	      9.89212815	     18.95597144	     -0.66863665	     -6.20754403	    -10.42436727	      2.29059819	      1.93451368	    -17.68493355	    -14.10117726	     -3.08125203	     28.61537589	     46.60508546	      0.00000000	      0.00000000	     26.75899229	    -22.88971981	     -2.79197330	    100.36643065	     47.72838062	      0.00000000	      0.00000000
     15.41785714	     -5.61021059	     -1.80138346	     -2.78520957	      0.97575436	      0.91230310	      0.43114771	     28.62055633	     -3.96987098	    -15.65656490	     15.39726455	     15.39726455	     -0.78970207	      2.99572430	      2.46751563	     -2.75867238	     -2.38914741	    -13.28595274	     10.51293262	     10.51293262	     19.53894633	     -0.94926816	     -6.09448415	    -10.26023987	      2.39573908	      2.21003552	    -18.54430365	    -13.85458204	     -3.04627779	     28.29731302	     46.60191378	      0.00000000	      0.00000000	     26.48295952	    -22.61168830	     -2.95742069	    100.96396311	     47.76277707	      0.00000000	      0.00000000
     15.42942857	     -5.60502332	     -2.00418906	     -2.65790165	      0.97697046	      0.91117631	      0.43386251	     28.73979927	     -3.70199983	    -15.20859729	     16.87122646	     16.87122646	     -0.87451607	      1.77441119	      0.91904805	     -2.93835142	     -2.90697016	    -13.06174235	     11.48307280	     11.48307280	     20.20869819	     -1.27152502	     -5.62561121	    -10.13499780	      2.54405358	      2.34545697	    -19.23703511	    -13.55770882	     -3.09130125	     28.23866892	     46.59303382	      0.00000000	      0.00000000	     25.85981981	    -22.41135233	     -3.38325432	    101.73509523	     47.81903429	      0.00000000	      0.00000000
     15.44100000	     -5.49374165	     -2.33941307	     -2.51478384	      0.97830157	      0.91057411	      0.43673543	     28.49681102	     -3.18676410	    -14.48318577	     17.89487200	     17.89487200	     -1.54171634	     -0.22380632	     -2.42368525	     -3.05964568	     -3.66087984	    -13.04846863	     12.87880675	     12.87880675	     21.52740997	     -1.09532376	     -3.69207101	    -10.16076973	      2.87378543	      1.97748260	    -19.48554993	    -13.44077421	     -3.27933440	     28.56762950	     46.56374903	      0.00000000	      0.00000000	     24.40932382	    -22.38792567	     -4.76369268	    103.00224622	     47.98145059	      0.00000000	      0.00000000
     15.45257143	     -5.31009916	     -2.63270544	     -2.40204862	      0.97952134	      0.91035921	      0.43951596	     28.40791523	     -2.90479278	    -14.20341349	     19.49022748	     19.49022748	     -0.90165681	     -1.03027221	     -3.08657766	     -3.32427905	     -4.29010819	    -12.81017597	     14.00697140	     14.00697140	     21.79233347	     -1.67059753	     -3.64098567	    -10.26288737	      3.14554792	      2.24473551	    -19.69452507	    -13.21822669	     -3.21263662	     28.42495375	     46.55881965	      0.00000000	      0.00000000	     23.70201322	    -22.06277280	     -4.87342465	    103.12581874	     47.99540262	      0.00000000	      0.00000000
     15.46414286	     -5.30150856	     -2.94893115	     -2.25537113	      0.98046753	      0.91026817	      0.44245556	     28.41929210	     -2.45489731	    -13.46565333	     20.83514004	     20.83514004	     -0.29722351	     -2.72842510	     -3.51879046	     -3.02638090	     -5.07493216	    -12.54169989	     15.83464432	     15.83464432	     22.44244575	     -2.13304273	     -2.68741434	    -10.23907641	      3.42696925	      2.01512114	    -19.38415553	    -13.03079866	     -2.99325528	     28.31798182	     46.52450593	      0.00000000	      0.00000000	     22.18983895	    -21.70723785	     -6.07062982	    103.83575521	     48.13065766	      0.00000000	      0.00000000
     15.47571429	     -5.18090555	     -3.28333410	     -2.07835399	      0.98138050	      0.91062725	      0.44531815	     28.18605683	     -2.06266744	    -13.16047109	     21.97967717	     21.97967717	      0.54961437	     -3.65319234	     -3.76389903	     -2.77051923	     -5.86194570	    -12.09957250	     17.71684202	     17.71684202	     22.43681161	     -3.02306288	     -2.83659052	    -10.34153268	      3.72939019	      2.20265162	    -19.16318625	    -12.80177709	     -2.89125257	     28.32646884	     46.51335382	      0.00000000	      0.00000000	     21.22482367	    -21.31861607	     -6.23680648	    103.71770958	     48.14384304	      0.00000000	      0.00000000
     15.48728571	     -5.02239536	     -3.64250772	     -1.88804715	      0.98229879	      0.91138666	      0.44818255	     27.74711308	     -1.60279832	    -12.89783166	     22.79629840	     22.79629840	      1.42698227	     -4.49098164	     -3.84308815	     -2.42618409	     -6.70280563	    -11.62553250	     19.80537682	     19.80537682	     22.24055803	     -3.95058460	     -3.09995305	    -10.49484335	      4.07225018	      2.33552485	    -18.76697729	    -12.68504350	     -2.82016055	     28.40424158	     46.50438238	      0.00000000	      0.00000000	     20.05675809	    -20.88416563	     -6.44384234	    103.43480379	     48.15270704	      0.00000000	      0.00000000
     15.49885714	     -4.98551230	     -3.96887449	     -1.66232889	      0.98297348	      0.91225137	      0.45107268	     27.29231469	     -1.12936072	    -12.68400878	     23.27323684	     23.27323684	      2.27264067	     -5.26348468	     -3.70343903	     -1.65584335	     -7.57156235	    -11.05774396	     22.34397520	     22.34397520	     21.76284856	     -5.01999134	     -3.60003616	    -10.52863867	      4.34906627	      2.35969774	    -18.11901825	    -12.48792859	     -2.71828892	     28.56376675	     46.49115261	      0.00000000	      0.00000000	     18.68169392	    -20.38345329	     -6.78400378	    102.97475931	     48.16633246	      0.00000000	      0.00000000
     15.51042857	     -4.94582687	     -4.28759671	     -1.42194410	      0.98360733	      0.91331766	      0.45391678	     26.70458580	     -0.65595509	    -12.61246973	     23.49424013	     23.49424013	      3.09582145	     -5.79440022	     -3.48627011	     -0.69792228	     -8.45154856	    -10.40799790	     25.16046594	     25.16046594	     20.93049722	     -6.20869196	     -4.38725018	    -10.54437260	      4.62857575	      2.31897904	    -17.30914115	    -12.38798402	     -2.60179290	     28.75416929	     46.47682417	      0.00000000	      0.00000000	     17.23746962	    -19.87117118	     -7.16533616	    102.31903611	     48.17855130	      0.00000000	      0.00000000
     15.52200000	     -4.89217232	     -4.54919612	     -1.19186465	      0.98417006	      0.91454968	      0.45667025	     26.08242029	     -0.24658676	    -12.62307662	     23.68925416	     23.68925416	      4.35569407	     -5.94276111	     -2.00741411	      0.28885471	     -9.20179416	     -9.57287017	     27.81426389	     27.81426389	     18.34057977	     -8.48582252	     -8.40291949	    -10.58132868	      4.84430952	      1.67452107	    -15.81124157	    -12.50183532	     -1.55519946	     28.50567920	     46.39408652	      0.00000000	      0.00000000	     15.11959934	    -19.17647729	     -8.89088862	    101.92767989	     48.32500126	      0.00000000	      0.00000000
     15.53357143	     -4.84179860	     -4.83246054	     -0.91533655	      0.98462555	      0.91579627	      0.45938554	     25.26633371	      0.17934088	    -12.87718998	     23.46119475	     23.46119475	      4.98127713	     -5.94082504	     -2.14190551	      1.72319651	    -10.08633874	     -8.78076575	     31.34380936	     31.34380936	     16.92560347	     -9.83302532	     -9.06662090	    -10.61933598	      5.09689659	      1.77366136	    -14.88749453	    -12.44067904	     -1.45549735	     28.87000537	     46.37601386	      0.00000000	      0.00000000	     13.81011987	    -18.71224576	     -8.60722998	    100.83008039	     48.28401131	      0.00000000	      0.00000000
     15.54514286	     -4.90856208	     -5.00743529	     -0.64843687	      0.98493850	      0.91689286	      0.46206118	     24.55095511	      0.51343593	    -13.11807140	     23.14476404	     23.14476404	      5.53190010	     -5.90703039	     -2.25639805	      3.45894953	    -10.78419206	     -7.76721966	     34.99569365	     34.99569365	     14.63849222	    -11.80139663	    -10.44354044	    -10.47400431	      5.20724606	      1.73961226	    -13.82707435	    -12.41664899	     -1.28977076	     29.36709525	     46.34604952	      0.00000000	      0.00000000	     12.43547369	    -18.17270115	     -8.60901426	     99.04837911	     48.25115907	      0.00000000	      0.00000000
